HIERARCHY
ROOT Hips
{
	OFFSET 0.00000 0.00000 0.00000
	CHANNELS 6 Xposition Yposition Zposition Zrotation Yrotation Xrotation 
	JOINT LHipJoint
	{
		OFFSET 0 0 0
		CHANNELS 3 Zrotation Yrotation Xrotation
		JOINT LeftHip
		{
			OFFSET 1.62964 -1.40469 0.78906
			CHANNELS 3 Zrotation Yrotation Xrotation
			JOINT LeftKnee
			{
				OFFSET 2.29640 -6.30932 0.00000
				CHANNELS 3 Zrotation Yrotation Xrotation
				JOINT LeftAnkle
				{
					OFFSET 2.29451 -6.30412 0.00000
					CHANNELS 3 Zrotation Yrotation Xrotation
					JOINT LeftToe
					{
						OFFSET 0.03611 -0.09921 1.56387
						CHANNELS 3 Zrotation Yrotation Xrotation
						End Site
						{
							OFFSET 0.00000 -0.00000 0.80291
						}
					}
				}
			}
		}
	}
	JOINT RHipJoint
	{
		OFFSET 0 0 0
		CHANNELS 3 Zrotation Yrotation Xrotation
		JOINT RightHip
		{
			OFFSET -1.73712 -1.40469 0.78906
			CHANNELS 3 Zrotation Yrotation Xrotation
			JOINT RightKnee
			{
				OFFSET -2.28137 -6.26801 0.00000
				CHANNELS 3 Zrotation Yrotation Xrotation
				JOINT RightAnkle
				{
					OFFSET -2.28681 -6.28298 0.00000
					CHANNELS 3 Zrotation Yrotation Xrotation
					JOINT RightToe
					{
						OFFSET -0.15927 -0.43759 1.61103
						CHANNELS 3 Zrotation Yrotation Xrotation
						End Site
						{
							OFFSET -0.00000 -0.00000 0.84630
						}
					}
				}
			}
		}
	}
	JOINT lowerback
	{
		OFFSET 0 0 0
		CHANNELS 3 Zrotation Yrotation Xrotation
		JOINT Chest
		{
			OFFSET -0.04227 2.04338 -0.00225
			CHANNELS 3 Zrotation Yrotation Xrotation
			JOINT Chest2
			{
				OFFSET -0.02148 2.04482 -0.04273
				CHANNELS 3 Zrotation Yrotation Xrotation
				JOINT lowerneck
				{
					OFFSET 0 0 0
					CHANNELS 3 Zrotation Yrotation Xrotation
					JOINT Neck
					{
						OFFSET 0.09180 1.44629 0.19359
						CHANNELS 3 Zrotation Yrotation Xrotation
						JOINT Head
						{
							OFFSET 0.00887 1.40645 0.14750
							CHANNELS 3 Zrotation Yrotation Xrotation
							End Site
							{
								OFFSET -0.00669 1.50671 0.03707
							}
						}
					}
				}
				JOINT LeftCollar
				{
					OFFSET 0 0 0
					CHANNELS 3 Zrotation Yrotation Xrotation
					JOINT LeftShoulder
					{
						OFFSET 2.17674 1.86763 -0.06520
CHANNELS 3 Zrotation Xrotation Yrotation
						JOINT LeftElbow
						{
OFFSET 0 -4.657760 0.000000
CHANNELS 3 Zrotation Xrotation Yrotation
							JOINT LeftWrist
							{
OFFSET 0 -3.555390 0.000000
CHANNELS 3 Zrotation Xrotation Yrotation
								JOINT lhand
								{
									OFFSET 0 0 0
CHANNELS 3 Zrotation Xrotation Yrotation
									JOINT LFingers
									{
OFFSET 0 -0.707260 0.000000
CHANNELS 3 Zrotation Xrotation Yrotation
										End Site
										{
OFFSET 0 -0.570220 0.000000
										}
									}
								}
								JOINT LThumb
								{
OFFSET 0 0.000000 0.000000
CHANNELS 3 Zrotation Xrotation Yrotation
									End Site
									{
OFFSET 0 -0.578920 0.578920
									}
								}
							}
						}
					}
				}
				JOINT RightCollar
				{
					OFFSET 0 0 0
					CHANNELS 3 Zrotation Yrotation Xrotation
					JOINT RightShoulder
					{
						OFFSET -2.80694 1.55459 -0.32496
CHANNELS 3 Zrotation Xrotation Yrotation
						JOINT RightElbow
						{
OFFSET 0 -4.719250 -0.000000
CHANNELS 3 Zrotation Xrotation Yrotation
							JOINT RightWrist
							{
OFFSET 0 -3.569900 0.000000
CHANNELS 3 Zrotation Xrotation Yrotation
								JOINT rhand
								{
									OFFSET 0 0 0
CHANNELS 3 Zrotation Xrotation Yrotation
									JOINT RFingers
									{
OFFSET 0 -0.507760 0.000000
CHANNELS 3 Zrotation Xrotation Yrotation
										End Site
										{
OFFSET 0 -0.409370 0.000000
										}
									}
								}
								JOINT RThumb
								{
OFFSET 0 0.000000 0.000000
CHANNELS 3 Zrotation Xrotation Yrotation
									End Site
									{
OFFSET 0 -0.415620 0.415620
									}
								}
							}
						}
					}
				}
			}
		}
	}
}
MOTION
Frames: 9
Frame Time: 0.008333333333333333
16.099200 16.341700 21.138600 177.982000 -0.120100 -154.949000 0.000000 0.000000 0.000000 -20.889800 -15.451400 -19.294200 0.219400 3.015200 8.321000 0.080100 -5.019600 -5.732500 2.867400 -10.477200 -30.536400 0.000000 0.000000 0.000000 17.550600 14.815200 -18.952300 -0.224800 -3.052100 8.423700 -1.099400 3.546500 -18.953800 -1.106700 6.683900 -18.782300 -7.525900 -2.153800 -29.943400 -0.165500 -0.922700 -1.199200 3.466700 -1.184000 14.487200 -0.584900 -1.473700 -5.873700 3.680700 -2.095200 4.685000 1.199700 -0.914700 2.560600 0.000000 -0.000000 0.000000 4.500600 0.557400 -19.139900 11.004700 -18.295500 1.777400 21.898100 -0.471400 11.630600 0.000000 0.000000 0.000000 -7.125000 0.000000 0.000000 -3.677400 17.488000 -2.407300 0.000000 -0.000000 0.000000 2.673400 4.470800 6.467000 -16.044200 -25.580500 -3.665000 -13.097000 9.024000 56.809500 0.000000 0.000000 0.000000 7.125000 0.000000 -0.000000 82.231300 76.738500 -68.523800
16.096156 16.342309 21.138513 177.939381 -0.157501 -154.960307 0.000000 0.000000 0.000000 -20.967298 -15.466360 -19.271934 0.216356 2.994238 8.262638 0.079404 -5.050390 -5.726412 2.886883 -10.509643 -30.643470 0.000000 0.000000 0.000000 17.519549 14.685080 -18.946472 -0.222886 -3.038966 8.387169 -1.103053 3.617735 -18.975632 -1.127227 6.743654 -18.957996 -7.511375 -2.167456 -29.925135 -0.187940 -0.942705 -1.193894 3.426777 -1.190958 14.486852 -0.516187 -1.468481 -5.985293 3.641473 -2.095809 4.823122 1.175172 -0.911917 2.626008 0.000000 0.000000 0.000000 4.510689 0.582798 -19.086669 10.990696 -18.273929 1.772964 22.021348 -0.458875 11.451686 0.000000 0.000000 0.000000 -7.125000 0.000000 0.000000 -3.584594 17.668045 -2.332238 0.000000 0.000000 0.000000 2.664615 4.524379 6.613906 -16.087254 -25.638775 -3.683613 -13.344105 9.117502 57.017204 0.000000 0.000000 0.000000 7.125000 0.000000 0.000000 83.148834 76.827218 -69.534140
16.099324 16.342844 21.136577 177.930781 -0.172123 -155.004895 0.000000 0.000000 0.000000 -20.968768 -15.411432 -19.224152 0.211315 2.959447 8.165966 0.076120 -5.040431 -5.644813 2.939795 -10.596814 -30.931956 0.000000 0.000000 0.000000 17.531614 14.651326 -18.877930 -0.220899 -3.025611 8.349973 -1.103896 3.612943 -18.983929 -1.087479 6.627170 -18.615478 -7.554387 -2.187250 -29.898216 -0.166820 -0.954353 -1.177347 3.469242 -1.198582 14.496119 -0.442297 -1.497209 -6.065233 3.497449 -2.137168 4.922934 1.113814 -0.934722 2.671595 0.000000 0.000000 0.000000 4.489052 0.613298 -19.092382 10.968336 -18.239712 1.766014 22.230090 -0.469277 11.330975 0.000000 0.000000 0.000000 -7.125000 0.000000 0.000000 -3.433880 17.778571 -2.225522 0.000000 0.000000 0.000000 2.626100 4.502448 6.628061 -16.070330 -25.615847 -3.676268 -13.560001 9.286439 57.148511 0.000000 0.000000 0.000000 7.125000 0.000000 0.000000 83.743252 76.902697 -70.210122
16.103951 16.343122 21.134620 177.907454 -0.163722 -155.035234 0.000000 0.000000 0.000000 -20.975193 -15.356628 -19.186015 0.208481 2.940013 8.111784 0.072075 -5.015740 -5.536941 2.880805 -10.498934 -30.608607 0.000000 0.000000 0.000000 17.508739 14.736118 -18.803037 -0.220178 -3.020564 8.335936 -1.108022 3.520302 -19.035118 -1.040714 6.487454 -18.205604 -7.636353 -2.207698 -29.888786 -0.141991 -0.955145 -1.168449 3.540532 -1.204617 14.503056 -0.381998 -1.551047 -6.109924 3.352888 -2.210746 5.028248 1.053283 -0.974160 2.713327 0.000000 0.000000 0.000000 4.460487 0.636715 -19.070937 10.919642 -18.165001 1.750821 22.416959 -0.512964 11.478998 0.000000 0.000000 0.000000 -7.125000 0.000000 0.000000 -3.308678 17.602832 -2.156558 0.000000 0.000000 0.000000 2.587042 4.467039 6.562171 -16.032790 -25.565031 -3.660086 -13.759189 9.449342 57.252717 0.000000 0.000000 0.000000 7.125000 0.000000 0.000000 84.225936 76.971032 -70.767882
16.103848 16.343104 21.134087 177.901145 -0.184904 -155.057937 0.000000 0.000000 0.000000 -20.993578 -15.342402 -19.156459 0.208754 2.941791 8.116688 0.069913 -5.027013 -5.489689 2.816416 -10.391727 -30.254850 0.000000 0.000000 0.000000 17.509609 14.745116 -18.757890 -0.219860 -3.018367 8.329884 -1.109402 3.495448 -19.050941 -1.024952 6.440143 -18.067018 -7.620965 -2.199839 -29.867118 -0.138979 -0.951209 -1.169031 3.537784 -1.201107 14.492272 -0.380123 -1.598161 -6.112370 3.328341 -2.273898 5.065011 1.042401 -1.005987 2.727065 0.000000 0.000000 0.000000 4.449748 0.639711 -19.029616 10.857113 -18.068904 1.731384 22.535101 -0.571500 11.729161 0.000000 0.000000 0.000000 -7.125000 0.000000 0.000000 -3.235966 17.323632 -2.128965 0.000000 0.000000 0.000000 2.566184 4.440080 6.493719 -15.994308 -25.512912 -3.643519 -13.956030 9.547356 57.373369 0.000000 0.000000 0.000000 7.125000 0.000000 0.000000 84.787476 77.036304 -71.402284
16.102377 16.343244 21.132202 177.907558 -0.201032 -155.100262 0.000000 0.000000 0.000000 -21.008973 -15.351623 -19.093664 0.210703 2.955083 8.153796 0.071868 -5.050178 -5.546944 2.813931 -10.387396 -30.240762 0.000000 0.000000 0.000000 17.529902 14.699278 -18.698099 -0.219007 -3.012583 8.313856 -1.104332 3.523373 -19.000937 -1.026202 6.444065 -18.078562 -7.564655 -2.169642 -29.845421 -0.153176 -0.927251 -1.158357 3.502338 -1.185454 14.491991 -0.426796 -1.622589 -6.091689 3.403740 -2.305029 5.016527 1.073708 -1.020231 2.709767 0.000000 0.000000 0.000000 4.455859 0.622279 -18.983705 10.802504 -17.984895 1.714485 22.539561 -0.543953 11.814991 0.000000 0.000000 0.000000 -7.125000 0.000000 0.000000 -3.236350 17.231173 -2.135777 0.000000 0.000000 0.000000 2.574161 4.395372 6.418534 -15.950395 -25.453370 -3.624635 -14.167318 9.675608 57.535285 0.000000 0.000000 0.000000 7.125000 0.000000 0.000000 85.541247 77.102394 -72.232240
16.104944 16.343569 21.126897 177.901250 -0.174478 -155.167653 0.000000 0.000000 0.000000 -21.012175 -15.349691 -18.981634 0.212506 2.967709 8.189002 0.076406 -5.060453 -5.659816 2.842837 -10.436086 -30.400884 0.000000 0.000000 0.000000 17.534089 14.710332 -18.584297 -0.217266 -3.000614 8.280559 -1.096228 3.508257 -18.930855 -1.012039 6.400662 -17.951513 -7.586454 -2.146738 -29.845950 -0.162119 -0.882111 -1.126842 3.522688 -1.166363 14.523852 -0.498930 -1.619434 -6.054621 3.507903 -2.297104 4.916093 1.120336 -1.015442 2.672038 0.000000 0.000000 0.000000 4.454802 0.601156 -18.927667 10.767998 -17.931768 1.703838 22.441312 -0.369188 11.638487 0.000000 0.000000 0.000000 -7.125000 0.000000 0.000000 -3.297806 17.429670 -2.162109 0.000000 0.000000 0.000000 2.594560 4.329685 6.317045 -15.904354 -25.390867 -3.604850 -14.398295 9.897787 57.721184 0.000000 0.000000 0.000000 7.125000 0.000000 0.000000 86.414327 77.171043 -73.187322
16.107202 16.343056 21.122644 177.888629 -0.186204 -155.218496 0.000000 0.000000 0.000000 -21.018772 -15.344016 -18.889282 0.213379 2.974034 8.206429 0.077120 -5.122777 -5.702101 2.859058 -10.463256 -30.490379 0.000000 0.000000 0.000000 17.549683 14.683993 -18.489877 -0.214770 -2.983690 8.233423 -1.092418 3.503780 -18.897449 -0.986728 6.322455 -17.722907 -7.622017 -2.146140 -29.839833 -0.152042 -0.866092 -1.105430 3.559694 -1.161463 14.544630 -0.614503 -1.583148 -5.968300 3.647737 -2.241707 4.780959 1.188306 -0.987552 2.613845 0.000000 0.000000 0.000000 4.419717 0.597996 -18.848597 10.745293 -17.896753 1.696856 22.370580 -0.177064 11.415670 0.000000 0.000000 0.000000 -7.125000 0.000000 0.000000 -3.338542 17.675055 -2.171045 0.000000 0.000000 0.000000 2.576091 4.313271 6.252475 -15.888980 -25.369852 -3.598211 -14.627856 10.047429 57.865710 0.000000 0.000000 0.000000 7.125000 0.000000 0.000000 87.113549 77.239114 -73.968610
16.103288 16.342621 21.123079 177.826005 -0.253090 -155.203710 0.000000 0.000000 0.000000 -21.126625 -15.390375 -18.879280 0.211204 2.958639 8.163462 0.073379 -5.196273 -5.643130 2.929424 -10.579807 -30.875519 0.000000 0.000000 0.000000 17.510195 14.494207 -18.524060 -0.212509 -2.967860 8.189412 -1.092592 3.608762 -18.883184 -0.992904 6.341678 -17.779008 -7.629062 -2.174060 -29.841137 -0.143605 -0.901406 -1.107691 3.558650 -1.177815 14.546891 -0.678432 -1.565926 -5.916200 3.673656 -2.213265 4.720596 1.209007 -0.975288 2.584794 0.000000 0.000000 0.000000 4.345177 0.593038 -18.774839 10.711807 -17.845175 1.686592 22.475562 -0.248473 11.497952 0.000000 0.000000 0.000000 -7.125000 0.000000 0.000000 -3.268176 17.577291 -2.132166 0.000000 0.000000 0.000000 2.501289 4.313967 6.248300 -15.879934 -25.357588 -3.594384 -14.816164 10.086047 57.920854 0.000000 0.000000 0.000000 7.125000 0.000000 0.000000 87.411884 77.299216 -74.336354
